<?xml version="1.0" encoding="UTF-8"?>
<svg width="1600" height="900" viewBox="0 0 1600 900" fill="none" xmlns="http://www.w3.org/2000/svg">
  <defs>
    <!-- Background -->
    <linearGradient id="bg" x1="0" y1="0" x2="1600" y2="900" gradientUnits="userSpaceOnUse">
      <stop stop-color="#050B1A"/>
      <stop offset="0.55" stop-color="#071B3B"/>
      <stop offset="1" stop-color="#071225"/>
    </linearGradient>

    <radialGradient id="blobA" cx="0" cy="0" r="1" gradientUnits="userSpaceOnUse" gradientTransform="translate(420 210) rotate(90) scale(340 520)">
      <stop stop-color="#7C3AED" stop-opacity="0.34"/>
      <stop offset="1" stop-color="#7C3AED" stop-opacity="0"/>
    </radialGradient>
    <radialGradient id="blobB" cx="0" cy="0" r="1" gradientUnits="userSpaceOnUse" gradientTransform="translate(1220 260) rotate(90) scale(340 560)">
      <stop stop-color="#06B6D4" stop-opacity="0.30"/>
      <stop offset="1" stop-color="#06B6D4" stop-opacity="0"/>
    </radialGradient>
    <radialGradient id="blobC" cx="0" cy="0" r="1" gradientUnits="userSpaceOnUse" gradientTransform="translate(920 740) rotate(90) scale(300 520)">
      <stop stop-color="#F97316" stop-opacity="0.22"/>
      <stop offset="1" stop-color="#F97316" stop-opacity="0"/>
    </radialGradient>

    <filter id="softShadow" x="-50%" y="-50%" width="200%" height="200%">
      <feDropShadow dx="0" dy="22" stdDeviation="22" flood-color="#000000" flood-opacity="0.42"/>
      <feDropShadow dx="0" dy="10" stdDeviation="12" flood-color="#000000" flood-opacity="0.30"/>
    </filter>

    <filter id="cardInner" x="-30%" y="-30%" width="160%" height="160%">
      <feGaussianBlur in="SourceAlpha" stdDeviation="2" result="blur"/>
      <feOffset dx="0" dy="1" result="off"/>
      <feComposite in="off" in2="blur" operator="arithmetic" k2="-1" k3="1" result="inner"/>
      <feColorMatrix in="inner" type="matrix" values="
        0 0 0 0 0
        0 0 0 0 0
        0 0 0 0 0
        0 0 0 0.28 0" result="inner2"/>
      <feComposite in="inner2" in2="SourceGraphic" operator="over"/>
    </filter>

    <linearGradient id="arrowGrad" x1="0" y1="0" x2="1" y2="0" gradientUnits="objectBoundingBox">
      <stop stop-color="#A78BFA"/>
      <stop offset="0.5" stop-color="#22D3EE"/>
      <stop offset="1" stop-color="#34D399"/>
    </linearGradient>

    <filter id="arrowGlow" x="-80%" y="-120%" width="260%" height="340%">
      <feGaussianBlur stdDeviation="7" result="b"/>
      <feColorMatrix in="b" type="matrix" values="
        1 0 0 0 0
        0 1 0 0 0
        0 0 1 0 0
        0 0 0 .62 0" result="b2"/>
      <feMerge>
        <feMergeNode in="b2"/>
        <feMergeNode in="SourceGraphic"/>
      </feMerge>
    </filter>

    <!-- Icon gradients -->
    <linearGradient id="gPurple" x1="0" y1="0" x2="1" y2="1">
      <stop stop-color="#7C3AED"/>
      <stop offset="1" stop-color="#6366F1"/>
    </linearGradient>
    <linearGradient id="gCyan" x1="0" y1="0" x2="1" y2="1">
      <stop stop-color="#06B6D4"/>
      <stop offset="1" stop-color="#22C55E"/>
    </linearGradient>
    <linearGradient id="gOrange" x1="0" y1="0" x2="1" y2="1">
      <stop stop-color="#F97316"/>
      <stop offset="1" stop-color="#F59E0B"/>
    </linearGradient>
    <linearGradient id="gGreen" x1="0" y1="0" x2="1" y2="1">
      <stop stop-color="#22C55E"/>
      <stop offset="1" stop-color="#16A34A"/>
    </linearGradient>

    <style>
      .title { font-family: ui-sans-serif, system-ui, -apple-system, "Segoe UI", "PingFang SC", "Microsoft YaHei", sans-serif; font-weight: 860; letter-spacing: -0.4px; fill: rgba(255,255,255,.94); }
      .kicker { font-family: ui-sans-serif, system-ui, -apple-system, "Segoe UI", "PingFang SC", "Microsoft YaHei", sans-serif; font-weight: 760; fill: rgba(255,255,255,.70); letter-spacing: 0.5px; }
      .subtitle { font-family: ui-sans-serif, system-ui, -apple-system, "Segoe UI", "PingFang SC", "Microsoft YaHei", sans-serif; font-weight: 560; fill: rgba(255,255,255,.68); }
      .cardTitle { font-family: ui-sans-serif, system-ui, -apple-system, "Segoe UI", "PingFang SC", "Microsoft YaHei", sans-serif; font-weight: 860; fill: rgba(255,255,255,.94); }
      .cardDesc { font-family: ui-sans-serif, system-ui, -apple-system, "Segoe UI", "PingFang SC", "Microsoft YaHei", sans-serif; font-weight: 720; fill: rgba(255,255,255,.74); }
      .cardSmall { font-family: ui-sans-serif, system-ui, -apple-system, "Segoe UI", "PingFang SC", "Microsoft YaHei", sans-serif; font-weight: 560; fill: rgba(255,255,255,.62); }
      .iconStroke { stroke: rgba(255,255,255,.94); stroke-width: 2.4; stroke-linecap: round; stroke-linejoin: round; fill: none; }
    </style>
  </defs>

  <!-- Background -->
  <rect width="1600" height="900" fill="url(#bg)"/>
  <rect x="0" y="0" width="1600" height="900" fill="url(#blobA)"/>
  <rect x="0" y="0" width="1600" height="900" fill="url(#blobB)"/>
  <rect x="0" y="0" width="1600" height="900" fill="url(#blobC)"/>

  <!-- Subtle grid -->
  <g opacity="0.13">
    <path d="M0 140H1600 M0 260H1600 M0 380H1600 M0 500H1600 M0 620H1600 M0 740H1600" stroke="rgba(255,255,255,0.22)" stroke-width="1"/>
    <path d="M160 0V900 M320 0V900 M480 0V900 M640 0V900 M800 0V900 M960 0V900 M1120 0V900 M1280 0V900 M1440 0V900" stroke="rgba(255,255,255,0.18)" stroke-width="1"/>
  </g>

  <!-- Header -->
  <g transform="translate(140 130)">
    <text class="kicker" x="0" y="0" font-size="18">&#x7AEF;&#x5230;&#x7AEF;&#x81EA;&#x52A8;&#x5316;&#x6D4B;&#x8BD5;&#x95ED;&#x73AF;</text>
    <text class="title" x="0" y="64" font-size="64">AI &#x9A71;&#x52A8;&#x00B7;&#x53EF;&#x89C6;&#x5316;&#x7F16;&#x6392;&#x00B7;&#x4E00;&#x952E;&#x6267;&#x884C;</text>
    <text class="subtitle" x="0" y="108" font-size="20">&#x96F6;&#x914D;&#x7F6E;&#x91C7;&#x96C6;&#x7D20;&#x6750;&#xFF0C;&#x62D6;&#x62FD;&#x7F16;&#x6392;&#x6D41;&#x7A0B;&#xFF0C;&#x7528;&#x81EA;&#x7136;&#x8BED;&#x8A00;&#x751F;&#x6210;&#x7528;&#x4F8B;&#xFF0C;&#x4E00;&#x952E;&#x6267;&#x884C;&#x76F4;&#x51FA;&#x7ED3;&#x679C;&#x3002;</text>
  </g>

  <!-- Cards row -->
  <g filter="url(#softShadow)">
    <!-- Card template: bento style -->
    <!-- Card 1 -->
    <g transform="translate(140 330)">
      <rect x="0" y="0" rx="22" ry="22" width="330" height="210" fill="rgba(255,255,255,0.10)" stroke="rgba(255,255,255,0.16)" stroke-width="1"/>
      <rect x="0" y="0" rx="22" ry="22" width="330" height="210" fill="transparent" filter="url(#cardInner)"/>
      <rect x="0" y="0" rx="22" ry="22" width="330" height="6" fill="url(#gPurple)"/>
      <circle cx="56" cy="64" r="26" fill="url(#gPurple)"/>
      <!-- Film icon -->
      <g transform="translate(56 64)">
        <rect x="-14" y="-10" width="28" height="20" rx="4" class="iconStroke"/>
        <path d="M-8 -10V10" class="iconStroke"/>
        <path d="M8 -10V10" class="iconStroke"/>
        <path d="M-14 -4H14" class="iconStroke" opacity="0.9"/>
        <path d="M-14 4H14" class="iconStroke" opacity="0.9"/>
      </g>
      <text class="cardTitle" x="92" y="70" font-size="28">&#x667A;&#x80FD; API &#x91C7;&#x96C6;</text>
      <text class="cardDesc" x="92" y="102" font-size="16">&#x96F6;&#x914D;&#x7F6E;&#x83B7;&#x53D6;</text>
      <text class="cardSmall" x="28" y="158" font-size="15">&#x6D4F;&#x89C8;&#x5668;&#x63D2;&#x4EF6; + &#x4EE3;&#x7406; + HAR &#x5BFC;&#x5165; &#x4E09;&#x79CD;&#x6A21;&#x5F0F;</text>
      <text class="cardSmall" x="28" y="182" font-size="14">&#x81EA;&#x52A8;&#x6355;&#x83B7;&#x6240;&#x6709; API &#x8BF7;&#x6C42;&#xFF0C;&#x96F6;&#x914D;&#x7F6E;</text>
      <text class="cardSmall" x="28" y="202" font-size="14">&#x5FEB;&#x901F;&#x6784;&#x5EFA; API &#x4ED3;&#x5E93;</text>
    </g>

    <!-- Card 2 -->
    <g transform="translate(505 330)">
      <rect x="0" y="0" rx="22" ry="22" width="330" height="210" fill="rgba(255,255,255,0.10)" stroke="rgba(255,255,255,0.16)" stroke-width="1"/>
      <rect x="0" y="0" rx="22" ry="22" width="330" height="210" fill="transparent" filter="url(#cardInner)"/>
      <rect x="0" y="0" rx="22" ry="22" width="330" height="6" fill="url(#gCyan)"/>
      <circle cx="56" cy="64" r="26" fill="url(#gCyan)"/>
      <!-- Layout/flow icon -->
      <g transform="translate(56 64)">
        <rect x="-12" y="-12" width="10" height="10" rx="2" class="iconStroke"/>
        <rect x="2" y="-12" width="10" height="10" rx="2" class="iconStroke"/>
        <rect x="-12" y="2" width="24" height="10" rx="2" class="iconStroke"/>
        <path d="M-7 -2V2" class="iconStroke" opacity="0.95"/>
        <path d="M7 -2V2" class="iconStroke" opacity="0.95"/>
      </g>
      <text class="cardTitle" x="92" y="70" font-size="28">&#x53EF;&#x89C6;&#x5316;&#x7F16;&#x6392;</text>
      <text class="cardDesc" x="92" y="102" font-size="16">&#x62D6;&#x62FD;&#x6784;&#x5EFA;&#x6D41;&#x7A0B;</text>
      <text class="cardSmall" x="28" y="158" font-size="15">&#x7528;&#x6D41;&#x7A0B;&#x8282;&#x70B9;&#x4E32;&#x8D77;&#x6D4B;&#x8BD5;&#x6B65;&#x9AA4;&#xFF0C;&#x6240;&#x89C1;&#x5373;&#x6240;&#x5F97;</text>
      <text class="cardSmall" x="28" y="184" font-size="15">&#x53EF;&#x91CD;&#x7528;&#x6A21;&#x677F;&#xFF0C;&#x5FEB;&#x901F;&#x89C4;&#x8303;&#x5316;&#x56E2;&#x961F;&#x5B9E;&#x8DF5;</text>
    </g>

    <!-- Card 3 -->
    <g transform="translate(870 330)">
      <rect x="0" y="0" rx="22" ry="22" width="330" height="210" fill="rgba(255,255,255,0.10)" stroke="rgba(255,255,255,0.16)" stroke-width="1"/>
      <rect x="0" y="0" rx="22" ry="22" width="330" height="210" fill="transparent" filter="url(#cardInner)"/>
      <rect x="0" y="0" rx="22" ry="22" width="330" height="6" fill="url(#gOrange)"/>
      <circle cx="56" cy="64" r="26" fill="url(#gOrange)"/>
      <!-- Robot icon -->
      <g transform="translate(56 64)">
        <rect x="-11" y="-8" width="22" height="18" rx="5" class="iconStroke"/>
        <path d="M0 -14V-10" class="iconStroke"/>
        <circle cx="-4.5" cy="-1" r="1.6" fill="rgba(255,255,255,.92)"/>
        <circle cx="4.5" cy="-1" r="1.6" fill="rgba(255,255,255,.92)"/>
        <path d="M-6 6H6" class="iconStroke" opacity="0.95"/>
      </g>
      <text class="cardTitle" x="92" y="70" font-size="28">AI &#x751F;&#x6210;&#x7528;&#x4F8B;</text>
      <text class="cardDesc" x="92" y="102" font-size="16">&#x81EA;&#x7136;&#x8BED;&#x8A00;&#x751F;&#x6210;</text>
      <text class="cardSmall" x="28" y="158" font-size="15">&#x7528;&#x81EA;&#x7136;&#x8BED;&#x8A00;&#x63CF;&#x8FF0;&#x76EE;&#x6807;&#xFF0C;AI &#x81EA;&#x52A8;&#x8865;&#x9F50;&#x7528;&#x4F8B;&#x4E0E;&#x65AD;&#x8A00;</text>
      <text class="cardSmall" x="28" y="184" font-size="15">&#x9762;&#x5411;&#x56DE;&#x5F52;&#x4E0E;&#x8FB9;&#x754C;&#x573A;&#x666F;&#xFF0C;&#x7A33;&#x5B9A;&#x8986;&#x76D6;</text>
    </g>

    <!-- Card 4 -->
    <g transform="translate(1235 330)">
      <rect x="0" y="0" rx="22" ry="22" width="330" height="210" fill="rgba(255,255,255,0.10)" stroke="rgba(255,255,255,0.16)" stroke-width="1"/>
      <rect x="0" y="0" rx="22" ry="22" width="330" height="210" fill="transparent" filter="url(#cardInner)"/>
      <rect x="0" y="0" rx="22" ry="22" width="330" height="6" fill="url(#gGreen)"/>
      <circle cx="56" cy="64" r="26" fill="url(#gGreen)"/>
      <!-- Check icon -->
      <g transform="translate(56 64)">
        <path d="M-10 0 L-2 8 L12 -8" class="iconStroke"/>
        <path d="M-14 -12H14V12H-14Z" class="iconStroke" opacity="0.35"/>
      </g>
      <text class="cardTitle" x="92" y="70" font-size="28">&#x6D4B;&#x8BD5;&#x5B8C;&#x6210;</text>
      <text class="cardDesc" x="92" y="102" font-size="16">&#x4E00;&#x952E;&#x6267;&#x884C;</text>
      <text class="cardSmall" x="28" y="158" font-size="15">&#x5B9E;&#x65F6;&#x6D41;&#x5F0F;&#x65E5;&#x5FD7;&#xFF0C;&#x7ED3;&#x679C;&#x4E0E;&#x5931;&#x8D25;&#x539F;&#x56E0;&#x4E00;&#x76EE;&#x4E86;&#x7136;</text>
      <text class="cardSmall" x="28" y="184" font-size="15">&#x652F;&#x6301;&#x5957;&#x4EF6;&#x7EA7;&#x8FD0;&#x884C;&#x4E0E;&#x6D41;&#x5F0F;&#x8FDB;&#x5EA6;</text>
    </g>
  </g>

  <!-- Arrows -->
  <g filter="url(#arrowGlow)" opacity="0.95">
    <path d="M475 435 C 492 435, 502 435, 520 435" stroke="url(#arrowGrad)" stroke-width="8" stroke-linecap="round"/>
    <path d="M520 435 L 505 426 L 505 444 Z" fill="url(#arrowGrad)"/>

    <path d="M840 435 C 858 435, 868 435, 886 435" stroke="url(#arrowGrad)" stroke-width="8" stroke-linecap="round"/>
    <path d="M886 435 L 871 426 L 871 444 Z" fill="url(#arrowGrad)"/>

    <path d="M1205 435 C 1222 435, 1232 435, 1250 435" stroke="url(#arrowGrad)" stroke-width="8" stroke-linecap="round"/>
    <path d="M1250 435 L 1235 426 L 1235 444 Z" fill="url(#arrowGrad)"/>
  </g>

  <!-- Bottom hint (small, centered) -->
  <g transform="translate(0 0)" opacity="0.8">
    <text class="subtitle" x="800" y="820" font-size="16" text-anchor="middle">&#x667A;&#x80FD; API &#x91C7;&#x96C6; &#x2192; &#x53EF;&#x89C6;&#x5316;&#x7F16;&#x6392; &#x2192; AI &#x751F;&#x6210;&#x7528;&#x4F8B; &#x2192; &#x6D4B;&#x8BD5;&#x5B8C;&#x6210;</text>
  </g>
</svg>

